<?xml version="1.0" standalone="no"?>
<!DOCTYPE svg PUBLIC "-//W3C//DTD SVG 20010904//EN"
 "http://www.w3.org/TR/2001/REC-SVG-20010904/DTD/svg10.dtd">
<svg version="1.0" xmlns="http://www.w3.org/2000/svg"
 width="450.000000pt" height="235.000000pt" viewBox="0 0 450.000000 235.000000"
 preserveAspectRatio="xMidYMid meet">
<metadata>
Created by potrace 1.10, written by Peter Selinger 2001-2011
</metadata>
<g transform="translate(0.000000,235.000000) scale(0.050000,-0.050000)"
fill="#f3f3f3" stroke="none">
<path d="M4287 4010 c-697 -126 -1154 -555 -1488 -1396 -127 -320 -218 -388
-459 -340 -127 25 -117 48 50 123 186 84 218 132 48 72 -122 -43 -311 -83
-558 -118 -549 -78 -1513 -254 -1573 -288 -146 -81 1793 -103 3003 -33 88 5
358 14 600 21 242 6 593 20 780 30 187 10 547 27 800 39 253 11 546 29 650 40
105 10 330 28 500 40 171 12 436 34 590 50 154 15 483 43 730 62 912 68 603
179 -670 239 -659 31 -768 63 -888 263 -583 975 -1251 1353 -2115 1196z m681
-608 c288 -102 537 -316 667 -572 60 -121 75 -194 16 -83 -369 697 -1276 836
-1796 275 -163 -176 -294 -485 -295 -696 0 -57 -8 -66 -67 -77 -177 -33 -185
-12 -103 241 173 537 422 797 890 933 175 50 516 40 688 -21z m18 -111 c349
-123 606 -407 677 -748 38 -187 69 -177 -643 -212 -336 -17 -759 -41 -941 -54
-519 -36 -530 -29 -438 303 161 581 783 910 1345 711z"/>
<path d="M5930 2000 c-8 -12 23 -15 84 -8 126 15 136 28 21 28 -51 0 -98 -9
-105 -20z"/>
<path d="M5715 1913 c-64 -19 -89 -46 -164 -175 -382 -655 -1309 -695 -1760
-75 -49 67 -95 148 -102 179 -6 32 -21 63 -33 70 -55 35 72 -223 167 -340 396
-480 1127 -510 1592 -65 147 140 167 127 30 -19 -507 -542 -1320 -506 -1804
78 -66 79 -163 190 -215 245 l-96 102 -140 -9 c-229 -15 -251 -114 -95 -429
488 -981 1970 -1153 2757 -320 242 255 417 668 324 761 -31 31 -359 29 -461
-3z"/>
</g>
</svg>
