<?xml version="1.0" standalone="no"?>
<!DOCTYPE svg PUBLIC "-//W3C//DTD SVG 20010904//EN"
 "http://www.w3.org/TR/2001/REC-SVG-20010904/DTD/svg10.dtd">
<svg version="1.0" xmlns="http://www.w3.org/2000/svg"
 width="151.000000pt" height="151.000000pt" viewBox="0 0 151.000000 151.000000"
 preserveAspectRatio="xMidYMid meet">
<metadata>
Created by potrace 1.10, written by Peter Selinger 2001-2011
</metadata>
<g transform="translate(0.000000,151.000000) scale(0.050000,-0.050000)"
fill="#ffffff" stroke="none">
<path d="M1099 2354 c-259 -74 -482 -312 -531 -569 -11 -57 -20 -65 -75 -65
-303 -3 -560 -387 -472 -705 29 -104 14 -112 478 260 411 330 417 336 427 421
32 286 417 281 449 -6 10 -87 21 -102 204 -266 l194 -174 108 1 108 2 265 277
c146 153 266 286 266 295 0 72 -340 108 -454 48 l-65 -33 -54 114 c-148 313
-526 491 -848 400z"/>
<path d="M2375 1411 c-271 -280 -275 -286 -275 -375 0 -113 -53 -186 -158
-218 -145 -43 -282 68 -282 229 0 63 -19 86 -199 245 l-200 176 -118 -1 -118
-1 -413 -335 c-228 -184 -411 -345 -406 -358 11 -35 131 -110 212 -133 130
-36 2248 -26 2338 11 325 136 351 600 41 761 -36 18 -57 45 -57 74 -1 40 -70
217 -84 212 -3 -1 -130 -130 -281 -287z"/>
</g>
</svg>
